<mxfile host="app.diagrams.net" modified="2022-11-21T03:21:00.709Z" agent="5.0 (Macintosh; Intel Mac OS X 10_15_7) AppleWebKit/537.36 (KHTML, like Gecko) Chrome/107.0.0.0 Safari/537.36" etag="VxjALdnxvtPF2Udo46ch" version="20.5.3" type="github">
  <diagram id="OcBe11owY4SYZGxnwDd0" name="第 1 页">
    <mxGraphModel dx="1426" dy="712" grid="1" gridSize="10" guides="1" tooltips="1" connect="1" arrows="1" fold="1" page="1" pageScale="1" pageWidth="827" pageHeight="1169" math="0" shadow="0">
      <root>
        <mxCell id="0" />
        <mxCell id="1" parent="0" />
        <mxCell id="kYPMdUf0o1A0_mtrnWgZ-1" value="队列A" style="outlineConnect=0;dashed=0;verticalLabelPosition=bottom;verticalAlign=top;align=center;html=1;shape=mxgraph.aws3.queue;fillColor=#D9A741;gradientColor=none;" vertex="1" parent="1">
          <mxGeometry x="210" y="100" width="80" height="40" as="geometry" />
        </mxCell>
        <mxCell id="kYPMdUf0o1A0_mtrnWgZ-2" value="" style="outlineConnect=0;dashed=0;verticalLabelPosition=bottom;verticalAlign=top;align=center;html=1;shape=mxgraph.aws3.queue;fillColor=#D9A741;gradientColor=none;" vertex="1" parent="1">
          <mxGeometry x="470" y="230" width="80" height="40" as="geometry" />
        </mxCell>
        <mxCell id="kYPMdUf0o1A0_mtrnWgZ-5" style="edgeStyle=orthogonalEdgeStyle;rounded=1;orthogonalLoop=1;jettySize=auto;html=1;entryX=0;entryY=0.5;entryDx=0;entryDy=0;entryPerimeter=0;strokeWidth=2;startSize=5;endSize=5;fillColor=#0D0D0D;" edge="1" parent="1" source="kYPMdUf0o1A0_mtrnWgZ-3" target="kYPMdUf0o1A0_mtrnWgZ-1">
          <mxGeometry relative="1" as="geometry" />
        </mxCell>
        <mxCell id="kYPMdUf0o1A0_mtrnWgZ-3" value="" style="outlineConnect=0;dashed=0;verticalLabelPosition=bottom;verticalAlign=top;align=center;html=1;shape=mxgraph.aws3.traditional_server;fillColor=#7D7C7C;gradientColor=none;" vertex="1" parent="1">
          <mxGeometry x="40" y="88.5" width="40" height="63" as="geometry" />
        </mxCell>
      </root>
    </mxGraphModel>
  </diagram>
</mxfile>
